<svg width="32" height="33" viewBox="0 0 32 33" fill="none" xmlns="http://www.w3.org/2000/svg">
<mask id="mask0_102_595" style="mask-type:luminance" maskUnits="userSpaceOnUse" x="0" y="0" width="33" height="33">
<rect x="0.000244141" y="0.5" width="32" height="32" fill="white"/>
</mask>
<g mask="url(#mask0_102_595)">
<mask id="mask1_102_595" style="mask-type:luminance" maskUnits="userSpaceOnUse" x="5" y="2" width="22" height="29">
<rect x="5.00024" y="2.5" width="21" height="28" fill="white"/>
</mask>
<g mask="url(#mask1_102_595)">
<path fill-rule="evenodd" clip-rule="evenodd" d="M22.4292 17.1947C22.4182 15.1877 23.326 13.6728 25.1635 12.5572C24.1354 11.0861 22.5823 10.2767 20.5315 10.1181C18.5901 9.96502 16.4682 11.2502 15.6917 11.2502C14.8713 11.2502 12.9901 10.1728 11.5135 10.1728C8.46196 10.222 5.21899 12.6064 5.21899 17.4572C5.21899 18.89 5.48149 20.3702 6.00649 21.8978C6.70649 23.9049 9.23306 28.8267 11.869 28.7447C13.2471 28.7119 14.2206 27.7658 16.0143 27.7658C17.7534 27.7658 18.6557 28.7447 20.1924 28.7447C22.8502 28.7064 25.1362 24.233 25.8034 22.2205C22.2377 20.5416 22.4291 17.2986 22.4291 17.1947L22.4292 17.1947ZM19.3338 8.21484C20.8268 6.44297 20.6901 4.82969 20.6463 4.25C19.3284 4.32656 17.8026 5.14688 16.9331 6.15859C15.976 7.24141 15.4127 8.58125 15.5331 10.0906C16.9604 10.2 18.262 9.46719 19.3338 8.21484Z" fill="black"/>
</g>
</g>
</svg>
