<svg width="21" height="21" viewBox="0 0 21 21" fill="none" xmlns="http://www.w3.org/2000/svg">
<path d="M18.9997 6.70287C18.9997 7.25383 18.5497 7.70461 17.9997 7.70461H3.33301C2.78301 7.70461 2.33301 7.25383 2.33301 6.70287V6.69453C2.33301 4.78287 3.87467 3.23853 5.78301 3.23853L15.5413 3.23853C17.4497 3.23853 18.9997 4.79122 18.9997 6.70287Z" fill="#1FCB4F"/>
<path d="M2.33301 9.95828V14.1405C2.33301 16.0522 3.87467 17.5965 5.78301 17.5965H15.5413C17.4497 17.5965 18.9997 16.0438 18.9997 14.1322V9.95828C18.9997 9.40733 18.5497 8.95654 17.9997 8.95654H3.33301C2.78301 8.95654 2.33301 9.40733 2.33301 9.95828ZM7.33301 14.8H5.66634C5.32467 14.8 5.04134 14.5162 5.04134 14.1739C5.04134 13.8317 5.32467 13.5478 5.66634 13.5478H7.33301C7.67467 13.5478 7.95801 13.8317 7.95801 14.1739C7.95801 14.5162 7.67467 14.8 7.33301 14.8ZM12.7497 14.8H9.41634C9.07467 14.8 8.79134 14.5162 8.79134 14.1739C8.79134 13.8317 9.07467 13.5478 9.41634 13.5478H12.7497C13.0913 13.5478 13.3747 13.8317 13.3747 14.1739C13.3747 14.5162 13.0913 14.8 12.7497 14.8Z" fill="#1FCB4F"/>
</svg>
