<svg width="32" height="33" viewBox="0 0 32 33" fill="none" xmlns="http://www.w3.org/2000/svg">
<mask id="mask0_102_604" style="mask-type:luminance" maskUnits="userSpaceOnUse" x="0" y="0" width="33" height="33">
<rect x="0.000244141" y="0.5" width="32" height="32" fill="white"/>
</mask>
<g mask="url(#mask0_102_604)">
<path fill-rule="evenodd" clip-rule="evenodd" d="M16.0002 3.8335C9.00457 3.8335 3.33351 9.50454 3.3335 16.5001C3.33348 23.4957 9.00451 29.1668 16.0001 29.1668C22.9957 29.1668 28.6668 23.4958 28.6668 16.5002C28.6668 9.50463 22.9958 3.83355 16.0002 3.8335H16.0002Z" fill="#039BE5"/>
<path fill-rule="evenodd" clip-rule="evenodd" d="M17.715 19.857H20.993L21.5077 16.527H17.7143V14.707C17.7143 13.3237 18.1663 12.097 19.4603 12.097H21.5397V9.19102C21.1743 9.14169 20.4017 9.03369 18.9417 9.03369C15.893 9.03369 14.1057 10.6437 14.1057 14.3117V16.527H10.9717V19.857H14.1057V29.0097C14.7263 29.103 15.355 29.1664 16.0003 29.1664C16.5837 29.1664 17.153 29.113 17.715 29.037V19.857Z" fill="white"/>
</g>
</svg>
