<svg width="32" height="33" viewBox="0 0 32 33" fill="none" xmlns="http://www.w3.org/2000/svg">
<mask id="mask0_102_604" style="mask-type:luminance" maskUnits="userSpaceOnUse" x="0" y="0" width="33" height="33">
<rect x="0.000244141" y="0.5" width="32" height="32" fill="white"/>
</mask>
<g mask="url(#mask0_102_604)">
<path fill-rule="evenodd" clip-rule="evenodd" d="M16.0003 3.8335C9.00469 3.8335 3.33364 9.50454 3.33362 16.5001C3.3336 23.4957 9.00463 29.1668 16.0002 29.1668C22.9958 29.1668 28.6669 23.4958 28.6669 16.5002C28.667 9.50463 22.9959 3.83355 16.0003 3.8335H16.0003Z" fill="#039BE5"/>
<path fill-rule="evenodd" clip-rule="evenodd" d="M17.7149 19.857H20.9929L21.5076 16.527H17.7142V14.707C17.7142 13.3237 18.1662 12.097 19.4602 12.097H21.5396V9.19102C21.1742 9.14169 20.4016 9.03369 18.9416 9.03369C15.8929 9.03369 14.1056 10.6437 14.1056 14.3117V16.527H10.9716V19.857H14.1056V29.0097C14.7262 29.103 15.3549 29.1664 16.0002 29.1664C16.5836 29.1664 17.1529 29.113 17.7149 29.037V19.857Z" fill="white"/>
</g>
</svg>
