<svg width="28" height="29" viewBox="0 0 28 29" fill="none" xmlns="http://www.w3.org/2000/svg">
<mask id="mask0_102_587" style="mask-type:luminance" maskUnits="userSpaceOnUse" x="0" y="0" width="29" height="29">
<rect x="0.000244141" y="0.5" width="28" height="28" fill="white"/>
</mask>
<g mask="url(#mask0_102_587)">
<path fill-rule="evenodd" clip-rule="evenodd" d="M25.4399 12.2148H24.5002V12.1663H14.0002V16.833H20.5936C19.6317 19.5496 17.0469 21.4997 14.0002 21.4997C10.1344 21.4997 7.00016 18.3654 7.00016 14.4997C7.00016 10.6339 10.1344 7.49967 14.0002 7.49967C15.7846 7.49967 17.408 8.17284 18.6441 9.27242L21.944 5.97251C19.8603 4.03059 17.0732 2.83301 14.0002 2.83301C7.55725 2.83301 2.3335 8.05676 2.3335 14.4997C2.3335 20.9426 7.55725 26.1663 14.0002 26.1663C20.4431 26.1663 25.6668 20.9426 25.6668 14.4997C25.6668 13.7174 25.5863 12.9538 25.4399 12.2148Z" fill="#FFC107"/>
<path fill-rule="evenodd" clip-rule="evenodd" d="M3.67871 9.06943L7.51179 11.8805C8.54896 9.31267 11.0608 7.49967 14.0002 7.49967C15.7846 7.49967 17.408 8.17284 18.6441 9.27242L21.944 5.97251C19.8604 4.03059 17.0732 2.83301 14.0002 2.83301C9.51905 2.83301 5.63288 5.36292 3.67871 9.06943Z" fill="#FF3D00"/>
<path fill-rule="evenodd" clip-rule="evenodd" d="M14.0003 26.1666C17.0138 26.1666 19.7519 25.0133 21.8222 23.1379L18.2113 20.0824C17.04 20.9697 15.584 21.4999 14.0003 21.4999C10.9658 21.4999 8.38918 19.565 7.41851 16.8647L3.61401 19.796C5.54485 23.5742 9.46601 26.1666 14.0003 26.1666Z" fill="#4CAF50"/>
<path fill-rule="evenodd" clip-rule="evenodd" d="M25.44 12.2154H24.5002V12.167H14.0002V16.8337H20.5937C20.1317 18.1386 19.2922 19.2638 18.2096 20.0834C18.2102 20.0828 18.2107 20.0828 18.2113 20.0822L21.8222 23.1377C21.5667 23.3699 25.6669 20.3337 25.6669 14.5003C25.6669 13.7181 25.5864 12.9545 25.44 12.2154Z" fill="#1976D2"/>
</g>
</svg>
