<svg width="35" height="35" viewBox="0 0 35 35" fill="none" xmlns="http://www.w3.org/2000/svg">
<path d="M17.0747 4.47413C17.3459 4.35563 17.6543 4.35563 17.9255 4.47413C23.1938 6.77596 28.1869 9.58983 32.8418 12.8527C33.1787 13.0888 33.349 13.4982 33.279 13.9036C33.209 14.3089 32.9112 14.6375 32.5147 14.7469C31.5444 15.0148 30.5824 15.3032 29.6292 15.6106C25.7602 16.8584 22.0358 18.4284 18.4876 20.2891L18.483 20.2915C18.3221 20.3759 18.1616 20.4609 18.0015 20.5464C17.6886 20.7136 17.3129 20.7136 17 20.5464C16.8384 20.46 16.6763 20.3742 16.5139 20.2891C14.7594 19.369 12.9618 18.5201 11.125 17.746V17.4291C11.125 17.243 11.2205 17.0779 11.3683 16.9883C13.5005 15.6966 15.7 14.5046 17.96 13.4191C18.489 13.165 18.7118 12.5302 18.4577 12.0013C18.2037 11.4723 17.5689 11.2495 17.04 11.5036C14.7177 12.619 12.4579 13.8437 10.2672 15.1709C9.62491 15.56 9.19313 16.1968 9.0511 16.9103C7.83996 16.4444 6.6129 16.0105 5.37091 15.61C4.41774 15.3026 3.45579 15.0147 2.48552 14.7469C2.08897 14.6375 1.79124 14.3089 1.72122 13.9035C1.65121 13.4982 1.8215 13.0888 2.15837 12.8527C6.81331 9.58981 11.8064 6.77596 17.0747 4.47413Z" fill="white"/>
<path d="M19.0029 22.4207C22.458 20.5746 26.088 19.0139 29.8616 17.77C30.0517 19.7743 30.1732 21.7985 30.2235 23.8402C30.2343 24.2783 29.975 24.6781 29.5706 24.8469C25.5315 26.5332 21.6896 28.5982 18.0892 30.9975C17.7324 31.2353 17.2676 31.2353 16.9108 30.9975C13.3105 28.5982 9.46853 26.5332 5.42943 24.8469C5.02506 24.6781 4.76581 24.2783 4.7766 23.8402C4.82691 21.7984 4.94835 19.774 5.13855 17.7695C6.4433 18.1996 7.73088 18.6675 9 19.172V20.9718C8.36484 21.3392 7.9375 22.0259 7.9375 22.8125C7.9375 23.5142 8.27761 24.1364 8.80198 24.5234C8.67516 25.0626 8.48748 25.5903 8.23892 26.0956C8.88024 26.3983 9.51607 26.7107 10.1462 27.0326C10.5051 26.3027 10.7653 25.5366 10.9269 24.7543C11.6697 24.4232 12.1875 23.6783 12.1875 22.8125C12.1875 22.0259 11.7602 21.3392 11.125 20.9718V20.0583C12.7845 20.7834 14.41 21.5719 15.9986 22.4207C16.9372 22.9222 18.0643 22.9222 19.0029 22.4207Z" fill="white"/>
<path d="M6.82148 28.0716C7.41525 27.4778 7.88795 26.809 8.23892 26.0956C8.88024 26.3983 9.51607 26.7107 10.1462 27.0326C9.69494 27.9504 9.08732 28.8109 8.32408 29.5742C7.90915 29.9891 7.23641 29.9891 6.82148 29.5742C6.40655 29.1592 6.40655 28.4865 6.82148 28.0716Z" fill="white"/>
</svg>
