<svg width="17" height="25" viewBox="0 0 17 25" fill="none" xmlns="http://www.w3.org/2000/svg">
<g clip-path="url(#clip0_4002_694)">
<path d="M9.32949 19.4194V24.3245C9.32949 24.6969 9.03187 25 8.66634 25C8.30081 25 8.00319 24.6969 8.00319 24.3245V19.4194C5.97379 19.2546 4.14413 18.3411 2.78187 16.9535C1.26981 15.4155 0.333008 13.2935 0.333008 10.9599C0.333008 10.5876 0.630627 10.2844 0.996159 10.2844C1.36169 10.2844 1.65931 10.5876 1.65931 10.9599C1.65931 12.9211 2.4483 14.7054 3.71867 15.9994C4.98905 17.2933 6.74081 18.0969 8.66634 18.0969C10.5919 18.0969 12.3436 17.2933 13.614 15.9994C14.8844 14.7054 15.6734 12.9211 15.6734 10.9599C15.6734 10.5876 15.971 10.2844 16.3365 10.2844C16.7021 10.2844 16.9997 10.5876 16.9997 10.9599C16.9997 13.2955 16.0629 15.4175 14.5528 16.9556C13.1886 18.3431 11.3589 19.2546 9.32949 19.4194ZM8.71028 2.86102e-06C9.98465 2.86102e-06 11.1432 0.531009 11.9821 1.3855C12.821 2.23999 13.3424 3.42001 13.3424 4.71802V10.8215C13.3424 12.1196 12.821 13.2996 11.9821 14.1541C11.1432 15.0085 9.98465 15.5396 8.71028 15.5396C7.43592 15.5396 6.2774 15.0085 5.43847 14.1541C4.59955 13.2996 4.07821 12.1196 4.07821 10.8215V4.71802C4.07821 3.42001 4.59955 2.23999 5.43847 1.3855C6.2774 0.531009 7.43592 2.86102e-06 8.71028 2.86102e-06ZM11.0433 2.34172C10.4441 1.73137 9.61712 1.35295 8.71028 1.35295C7.80145 1.35295 6.9765 1.73137 6.37727 2.34172C5.77804 2.95207 5.40651 3.79436 5.40651 4.71802V10.8215C5.40651 11.7472 5.77804 12.5875 6.37727 13.1978C6.9765 13.8082 7.80344 14.1866 8.71028 14.1866C9.61912 14.1866 10.4441 13.8082 11.0433 13.1978C11.6425 12.5875 12.0141 11.7452 12.0141 10.8215V4.71802C12.0161 3.79232 11.6425 2.95207 11.0433 2.34172Z" fill="black" fill-opacity="0.5"/>
</g>
<defs>
<clipPath id="clip0_4002_694">
<rect width="16.6667" height="25" fill="white" transform="translate(0.333008 2.86102e-06)"/>
</clipPath>
</defs>
</svg>
