<svg width="32" height="33" viewBox="0 0 32 33" fill="none" xmlns="http://www.w3.org/2000/svg">
<g clip-path="url(#clip0_4002_692)">
<path d="M21.3339 9.75992C21.325 9.36347 21.638 9.04018 22.032 9.0379C22.4266 9.03571 22.754 9.3557 22.7626 9.75177L23.0708 24.0109C23.1032 25.6155 22.4808 27.0766 21.4524 28.1373C20.44 29.1817 19.0306 29.841 17.4608 29.8689C17.4093 29.8746 17.3574 29.8749 17.3057 29.8699C15.7334 29.8564 14.2927 29.2095 13.234 28.1731C12.1759 27.1375 11.4958 25.7098 11.441 24.1333C11.4346 24.0838 11.4335 24.0332 11.4371 23.9833L11.0671 6.83488C11.1086 5.61071 11.433 4.60921 12.0871 3.8707C12.7473 3.12504 13.7104 2.67995 15.0217 2.58072L15.0791 2.57862L15.0949 2.57864L15.0967 2.57852C15.7606 2.5804 16.3494 2.70045 16.863 2.92383C17.4153 3.16473 17.8783 3.52503 18.2524 3.98755C18.7554 4.61032 19.0185 5.25013 19.1589 5.91694C19.2888 6.53127 19.3076 7.16479 19.322 7.83399L19.6659 23.72C19.6804 24.3916 19.421 25.0026 18.9921 25.4449C18.5823 25.868 18.0134 26.1389 17.3789 26.163C17.3255 26.1694 17.271 26.1698 17.2156 26.1636C16.5787 26.1456 15.9973 25.8791 15.5673 25.4589C15.1211 25.0211 14.8358 24.4136 14.8211 23.7433L14.5241 10.0183C14.5151 9.62253 14.8282 9.29924 15.2225 9.29667C15.6168 9.29477 15.9441 9.61477 15.9532 10.0105L16.2502 23.7355C16.2563 24.0084 16.3746 24.258 16.5596 24.4395C16.7434 24.6194 16.994 24.7304 17.2645 24.7291L17.2679 24.7296C17.5375 24.7271 17.7831 24.6128 17.9598 24.4307C18.1362 24.2488 18.2428 23.9995 18.2369 23.7277L17.893 7.84175C17.8804 7.25979 17.8639 6.70805 17.7555 6.19286C17.6582 5.73092 17.4803 5.29357 17.1468 4.8799C16.9243 4.60444 16.645 4.38882 16.3093 4.24206C15.9808 4.099 15.5922 4.02086 15.1416 4.01776C14.2227 4.08929 13.5739 4.37248 13.1609 4.83829C12.7399 5.31409 12.5285 6.016 12.4969 6.91076L12.8679 24.0472C12.8938 25.2571 13.4125 26.3566 14.226 27.1532C15.0235 27.9339 16.105 28.422 17.2833 28.4347C17.3255 28.4302 17.369 28.4297 17.413 28.4338C18.5926 28.4108 19.6548 27.9125 20.4201 27.123C21.1846 26.3348 21.6516 25.2555 21.643 24.0716C21.6383 24.0282 21.6375 23.9843 21.6402 23.9394L21.3339 9.75992Z" fill="black" fill-opacity="0.5"/>
</g>
<defs>
<clipPath id="clip0_4002_692">
<rect width="19.0476" height="25" fill="white" transform="translate(0.931641 12.5133) rotate(-38)"/>
</clipPath>
</defs>
</svg>
