<svg width="21" height="20" viewBox="0 0 21 20" fill="none" xmlns="http://www.w3.org/2000/svg">
<path d="M18.1895 2.14854C17.7729 1.72271 17.1562 1.56521 16.5812 1.73187L3.17286 5.60604C2.56619 5.77437 2.13619 6.25521 2.02036 6.86521C1.90202 7.48687 2.31536 8.27687 2.85536 8.60687L7.04786 11.1669C7.47786 11.4302 8.03286 11.3644 8.38869 11.0077L13.1895 6.20687C13.4312 5.95604 13.8312 5.95604 14.0729 6.20687C14.3145 6.44771 14.3145 6.84021 14.0729 7.09021L9.26369 11.891C8.90702 12.2477 8.84036 12.801 9.10286 13.2319L11.6645 17.4402C11.9645 17.9394 12.4812 18.2235 13.0479 18.2235C13.1145 18.2235 13.1895 18.2235 13.2562 18.2144C13.9062 18.1319 14.4229 17.6894 14.6145 17.0644L18.5895 3.75687C18.7645 3.19021 18.6062 2.57354 18.1895 2.14854Z" fill="white"/>
<path opacity="0.4" d="M8.20952 15.9519C8.45286 16.196 8.45286 16.5919 8.20952 16.836L7.07119 17.9735C6.94952 18.096 6.78952 18.1569 6.62952 18.1569C6.46952 18.1569 6.30952 18.096 6.18786 17.9735C5.94369 17.7294 5.94369 17.3344 6.18786 17.0902L7.32536 15.9519C7.56952 15.7085 7.96536 15.7085 8.20952 15.9519ZM7.55644 12.7952C7.79977 13.0394 7.79977 13.4352 7.55644 13.6794L6.41811 14.8169C6.29644 14.9394 6.13644 15.0002 5.97644 15.0002C5.81644 15.0002 5.65644 14.9394 5.53477 14.8169C5.29061 14.5727 5.29061 14.1777 5.53477 13.9335L6.67227 12.7952C6.91644 12.5519 7.31227 12.5519 7.55644 12.7952ZM4.42211 11.8015C4.66544 12.0457 4.66544 12.4415 4.42211 12.6857L3.28377 13.8232C3.16211 13.9457 3.00211 14.0065 2.84211 14.0065C2.68211 14.0065 2.52211 13.9457 2.40044 13.8232C2.15627 13.579 2.15627 13.184 2.40044 12.9399L3.53794 11.8015C3.78211 11.5582 4.17794 11.5582 4.42211 11.8015Z" fill="white"/>
</svg>
