<svg width="21" height="21" viewBox="0 0 21 21" fill="none" xmlns="http://www.w3.org/2000/svg">
<path d="M19.0001 10.935V12.6546C19.0001 13.1221 18.6168 13.5061 18.1418 13.5061H16.5334C15.6334 13.5061 14.8084 12.8466 14.7334 11.9451C14.6834 11.4191 14.8834 10.9266 15.2334 10.5844C15.5418 10.2671 15.9668 10.0835 16.4334 10.0835H18.1418C18.6168 10.0835 19.0001 10.4675 19.0001 10.935Z" fill="#1FCB4F"/>
<path d="M13.4833 12.0538C13.4083 11.1773 13.7249 10.3175 14.3583 9.6914C14.8916 9.14879 15.6333 8.83157 16.4333 8.83157H16.9083C17.1416 8.83157 17.3333 8.63957 17.2999 8.40583C17.0749 6.78635 15.6749 5.53418 13.9999 5.53418H5.66659C3.82492 5.53418 2.33325 7.02844 2.33325 8.87331L2.33325 14.7168C2.33325 16.5617 3.82492 18.0559 5.66659 18.0559H13.9999C15.6833 18.0559 17.0749 16.8037 17.2999 15.1843C17.3333 14.9505 17.1416 14.7585 16.9083 14.7585H16.5333C14.9499 14.7585 13.6166 13.5731 13.4833 12.0538ZM11.4999 10.3342H6.49992C6.15825 10.3342 5.87492 10.0587 5.87492 9.70809C5.87492 9.35748 6.15825 9.08201 6.49992 9.08201H11.4999C11.8416 9.08201 12.1249 9.36583 12.1249 9.70809C12.1249 10.0504 11.8416 10.3342 11.4999 10.3342Z" fill="#1FCB4F"/>
<path d="M12.5084 3.7226C12.725 3.94799 12.5334 4.28191 12.2167 4.28191H5.69171C4.78338 4.28191 3.93338 4.54904 3.22504 5.00817C2.90004 5.21686 2.45838 4.99147 2.61671 4.63251C3.08338 3.53895 4.17504 2.7793 5.43338 2.7793H10.1167C11.0834 2.7793 11.9417 3.12156 12.5084 3.7226Z" fill="#1FCB4F"/>
</svg>
